<?xml version="1.0" encoding="utf-8"?>
<!-- Generator: Adobe Illustrator 22.1.0, SVG Export Plug-In . SVG Version: 6.00 Build 0)  -->
<svg version="1.1" id="Layer_4_1_" xmlns="http://www.w3.org/2000/svg" xmlns:xlink="http://www.w3.org/1999/xlink" x="0px" y="0px"
	 viewBox="0 0 37 37" style="enable-background:new 0 0 37 37;" xml:space="preserve">
<style type="text/css">
	.st0{fill:#CE3535;}
	.st1{fill:#FFFFFF;}
	.st2{fill:#241C1C;}
</style>
<g>
	<path class="st0" d="M34.4,15.8V12c0-1.3-0.9-2.4-2-2.4h-0.5c-0.3,0-0.5,0.3-0.5,0.6v2.2h-1v-3c0-0.7-0.5-1.3-1.1-1.3h-0.2v3.8H27
		V8.2h0c-0.6,0-1.1,0.6-1.1,1.3v3h-1.3v-2.2c0-0.4-0.2-0.6-0.6-0.6H12.8c-0.3,0-0.6,0.3-0.6,0.6v2.2h-1.3v-3c0-0.7-0.5-1.3-1.1-1.3
		H9.7v3.8H7.5V8.2H7.4c-0.6,0-1.1,0.6-1.1,1.3v3h-1v-2.2c0-0.3-0.2-0.6-0.5-0.6H4.6c-1.1,0-2,1.1-2,2.4v3.9h4.2v9.9H2.6v3.9
		c0,1.3,0.9,2.4,2,2.4h0.3c0.3,0,0.5-0.3,0.5-0.6v-2h1v2.8c0,0.7,0.5,1.3,1.1,1.3h0.1v-3.6h2.1v3.6h0.1c0.6,0,1.1-0.6,1.1-1.3v-2.8
		h1.3v2c0,0.4,0.2,0.6,0.6,0.6H24c0.3,0,0.6-0.3,0.6-0.6v-2h1.3v2.8c0,0.7,0.5,1.3,1.1,1.3h0v-3.6h2.1v3.6h0.2
		c0.6,0,1.1-0.6,1.1-1.3v-2.8h1v2c0,0.3,0.2,0.6,0.5,0.6h0.5c1.1,0,2-1.1,2-2.4v-3.9h-4.2v-9.9H34.4z"/>
	<path class="st1" d="M18.5,13.7h-1.4c-0.2,0-0.4,0.2-0.4,0.4v5.1h-5.1c-0.2,0-0.4,0.2-0.4,0.4v1.4c0,4.1,3.3,7.4,7.4,7.4h1.4
		c0.2,0,0.4-0.2,0.4-0.4V23h5.1c0.2,0,0.4-0.2,0.4-0.4v-1.4C25.9,17.1,22.6,13.7,18.5,13.7z M16.7,24.1v3.3
		c-2.1-0.6-3.8-2.3-4.4-4.4h3.2l4.9-4.9v-3.2c2.1,0.6,3.8,2.3,4.4,4.4h-3.3L16.7,24.1z"/>
	<path class="st0" d="M0.7,16.7v1.2c0,0.1,0.1,0.2,0.3,0.2h1.1c0.3,0,0.5,0.2,0.5,0.5v0.6H1.1v3.1h1.4V23c0,0.2-0.2,0.5-0.5,0.5H1
		c-0.1,0-0.3,0.1-0.3,0.2v1.2h5.1v-8.2H0.7z"/>
	<path class="st0" d="M34.9,18.2H36c0.1,0,0.3-0.1,0.3-0.2v-1.2h-5.1v8.2h5.1v-1.2c0-0.1-0.1-0.2-0.3-0.2h-1.1
		c-0.3,0-0.5-0.2-0.5-0.5v-0.6h1.4v-3.1h-1.4v-0.6C34.4,18.4,34.7,18.2,34.9,18.2z"/>
	<path class="st2" d="M28.6,6.9h-1.2c0-2.1-1.8-2.1-2-2.1h-14c-0.2,0-2,0.1-2,2.1H8.2c0-1,0.3-1.8,0.9-2.4c1-0.9,2.3-0.9,2.4-1h14
		c0.1,0,1.4,0,2.3,0.9C28.3,5.1,28.6,5.9,28.6,6.9z"/>
</g>
</svg>
