<?xml version="1.0" encoding="utf-8"?>
<!-- Generator: Adobe Illustrator 22.1.0, SVG Export Plug-In . SVG Version: 6.00 Build 0)  -->
<svg version="1.1" id="Layer_4_1_" xmlns="http://www.w3.org/2000/svg" xmlns:xlink="http://www.w3.org/1999/xlink" x="0px" y="0px"
	 viewBox="0 0 37 37" style="enable-background:new 0 0 37 37;" xml:space="preserve">
<style type="text/css">
	.st0{fill:#241C1C;}
	.st1{fill:#274BA6;}
	.st2{fill:#FFFFFF;}
	.st3{display:none;fill:#BC3BAD;}
</style>
<path class="st0" d="M26.1,17.3v7.7c0,0,0,0.1,0,0.1l1.5,1.1V16.1L26.1,17.3C26.1,17.2,26.1,17.3,26.1,17.3z"/>
<path class="st0" d="M25.3,26.2c-0.4-0.3-0.6-0.7-0.6-1.2v-7.7c0-0.5,0.2-0.9,0.6-1.2l2.3-1.7v-1.7c0-2.1-1.7-3.8-3.8-3.8H13.2
	c-2.1,0-3.8,1.7-3.8,3.8v1.7l2.3,1.7c0.4,0.3,0.6,0.7,0.6,1.2v7.7c0,0.5-0.2,0.9-0.6,1.2l-2.3,1.7v1.4c0,1.2,1,2.2,2.2,2.2h13.8
	c1.2,0,2.2-1,2.2-2.2v-1.4L25.3,26.2z"/>
<path class="st0" d="M10.9,25.1v-7.7c0,0,0-0.1,0-0.1l-1.5-1.1v10.2L10.9,25.1C10.9,25.1,10.9,25.1,10.9,25.1z"/>
<path class="st1" d="M25.3,26.2c-0.4-0.3-0.6-0.7-0.6-1.2v-7.7c0-0.5,0.2-0.9,0.6-1.2l0.7-0.5v-3.8c0-0.7-0.5-1.2-1.2-1.2H12.2
	c-0.7,0-1.2,0.5-1.2,1.2v3.8l0.7,0.5c0.4,0.3,0.6,0.7,0.6,1.2v7.7c0,0.5-0.2,0.9-0.6,1.2L11,26.7V29c0,0.3,0.3,0.6,0.6,0.6h13.8
	c0.3,0,0.6-0.3,0.6-0.6v-2.3L25.3,26.2z"/>
<g>
	<g>
		<path class="st2" d="M18.5,27.6l-5.3-4.1v-8.4l10.5,0v8.4L18.5,27.6z M14,23.2l4.5,3.5l4.5-3.5v-7.3l-9.1,0V23.2z"/>
	</g>
	<polygon class="st2" points="17.8,21.7 16.5,22.2 17,16.6 14.7,16.6 14.7,22.8 17.3,24.8 	"/>
	<polygon class="st2" points="20.4,16.6 19.4,20.1 21.2,19.5 17.6,25 18.5,25.7 22.3,22.8 22.3,16.6 	"/>
</g>
<path class="st0" d="M22,6c-0.3-0.3-0.7-0.5-1.1-0.5h-2.4h-2.4c-0.4,0-0.8,0.2-1.1,0.5c-0.5,0.7-1.6,1.7-2.9,1.7v0.5h6.3h6.3V7.7
	C23.6,7.7,22.5,6.6,22,6z M15.7,7.3l0.8-0.7h4l0.8,0.7H15.7z"/>
<path class="st3" d="M25.4,30.8h-0.3c-0.2,0.4-0.7,0.7-1.2,0.7H13.1c-0.5,0-1-0.3-1.2-0.7h-0.3l-1.3,1.3v1.1c0,0.9,0.7,1.6,1.6,1.6
	h13.3c0.9,0,1.6-0.7,1.6-1.6v-1.1L25.4,30.8z"/>
</svg>
