<?xml version="1.0" encoding="utf-8"?>
<!-- Generator: Adobe Illustrator 22.1.0, SVG Export Plug-In . SVG Version: 6.00 Build 0)  -->
<svg version="1.1" id="Layer_4_1_" xmlns="http://www.w3.org/2000/svg" xmlns:xlink="http://www.w3.org/1999/xlink" x="0px" y="0px"
	 viewBox="0 0 37 37" style="enable-background:new 0 0 37 37;" xml:space="preserve">
<style type="text/css">
	.st0{fill:#241C1C;}
	.st1{fill:#274BA6;}
	.st2{fill:#FFFFFF;}
	.st3{display:none;fill:#BC3BAD;}
</style>
<path class="st0" d="M26.1,12.2v7.7c0,0,0,0.1,0,0.1l1.5,1.1V10.9L26.1,12.2C26.1,12.1,26.1,12.1,26.1,12.2z"/>
<path class="st0" d="M25.3,21.1c-0.4-0.3-0.6-0.7-0.6-1.2v-7.7c0-0.5,0.2-0.9,0.6-1.2l2.3-1.7V7.6c0-2.1-1.7-3.8-3.8-3.8H13.2
	c-2.1,0-3.8,1.7-3.8,3.8v1.7l2.3,1.7c0.4,0.3,0.6,0.7,0.6,1.2v7.7c0,0.5-0.2,0.9-0.6,1.2l-2.3,1.7v1.4c0,1.2,1,2.2,2.2,2.2h13.8
	c1.2,0,2.2-1,2.2-2.2v-1.4L25.3,21.1z"/>
<path class="st0" d="M10.9,19.9v-7.7c0,0,0-0.1,0-0.1l-1.5-1.1v10.2L10.9,19.9C10.9,20,10.9,20,10.9,19.9z"/>
<path class="st1" d="M25.3,21.1c-0.4-0.3-0.6-0.7-0.6-1.2v-7.7c0-0.5,0.2-0.9,0.6-1.2l0.7-0.5V6.7c0-0.7-0.5-1.2-1.2-1.2H12.2
	C11.6,5.5,11,6,11,6.7v3.8l0.7,0.5c0.4,0.3,0.6,0.7,0.6,1.2v7.7c0,0.5-0.2,0.9-0.6,1.2L11,21.6v2.3c0,0.3,0.3,0.6,0.6,0.6h13.8
	c0.3,0,0.6-0.3,0.6-0.6v-2.3L25.3,21.1z"/>
<g>
	<g>
		<path class="st2" d="M18.5,22.5l-5.3-4.1V10l10.5,0v8.4L18.5,22.5z M14,18l4.5,3.5L23,18v-7.3l-9.1,0V18z"/>
	</g>
	<polygon class="st2" points="17.8,16.6 16.5,17.1 17,11.5 14.7,11.5 14.7,17.7 17.3,19.6 	"/>
	<polygon class="st2" points="20.4,11.5 19.4,14.9 21.2,14.3 17.6,19.9 18.5,20.6 22.3,17.7 22.3,11.5 	"/>
</g>
<path class="st0" d="M22,0.8c-0.3-0.3-0.7-0.5-1.1-0.5h-2.4h-2.4c-0.4,0-0.8,0.2-1.1,0.5c-0.5,0.7-1.6,1.7-2.9,1.7v0.5h6.3h6.3V2.5
	C23.6,2.5,22.5,1.5,22,0.8z M15.7,2.2l0.8-0.7h4l0.8,0.7H15.7z"/>
<path class="st0" d="M11.2,27.3v3.9c0,0.2,0.2,0.4,0.4,0.4h13.8c0.2,0,0.4-0.2,0.4-0.4v-3.9H11.2z M12.7,30.8
	c-0.3,0-0.5-0.2-0.5-0.5c0-0.3,0.2-0.5,0.5-0.5s0.5,0.2,0.5,0.5C13.2,30.5,13,30.8,12.7,30.8z M12.7,29c-0.3,0-0.5-0.2-0.5-0.5
	s0.2-0.5,0.5-0.5s0.5,0.2,0.5,0.5S13,29,12.7,29z M14.1,29.9c-0.3,0-0.5-0.2-0.5-0.5c0-0.3,0.2-0.5,0.5-0.5s0.5,0.2,0.5,0.5
	C14.6,29.7,14.4,29.9,14.1,29.9z M15.6,30.8c-0.3,0-0.5-0.2-0.5-0.5c0-0.3,0.2-0.5,0.5-0.5s0.5,0.2,0.5,0.5
	C16.1,30.5,15.9,30.8,15.6,30.8z M15.6,29c-0.3,0-0.5-0.2-0.5-0.5s0.2-0.5,0.5-0.5s0.5,0.2,0.5,0.5S15.9,29,15.6,29z M17,29.9
	c-0.3,0-0.5-0.2-0.5-0.5c0-0.3,0.2-0.5,0.5-0.5c0.3,0,0.5,0.2,0.5,0.5C17.5,29.7,17.3,29.9,17,29.9z M18.5,30.8
	c-0.3,0-0.5-0.2-0.5-0.5c0-0.3,0.2-0.5,0.5-0.5S19,30,19,30.3C19,30.5,18.8,30.8,18.5,30.8z M18.5,29c-0.3,0-0.5-0.2-0.5-0.5
	s0.2-0.5,0.5-0.5s0.5,0.2,0.5,0.5S18.8,29,18.5,29z M20,29.9c-0.3,0-0.5-0.2-0.5-0.5c0-0.3,0.2-0.5,0.5-0.5c0.3,0,0.5,0.2,0.5,0.5
	C20.4,29.7,20.2,29.9,20,29.9z M21.4,30.8c-0.3,0-0.5-0.2-0.5-0.5c0-0.3,0.2-0.5,0.5-0.5c0.3,0,0.5,0.2,0.5,0.5
	C21.9,30.5,21.6,30.8,21.4,30.8z M21.4,29c-0.3,0-0.5-0.2-0.5-0.5s0.2-0.5,0.5-0.5c0.3,0,0.5,0.2,0.5,0.5S21.6,29,21.4,29z
	 M22.9,29.9c-0.3,0-0.5-0.2-0.5-0.5c0-0.3,0.2-0.5,0.5-0.5c0.3,0,0.5,0.2,0.5,0.5C23.4,29.7,23.1,29.9,22.9,29.9z M24.3,30.8
	c-0.3,0-0.5-0.2-0.5-0.5c0-0.3,0.2-0.5,0.5-0.5c0.3,0,0.5,0.2,0.5,0.5C24.7,30.5,24.5,30.8,24.3,30.8z M24.3,29
	c-0.3,0-0.5-0.2-0.5-0.5s0.2-0.5,0.5-0.5c0.3,0,0.5,0.2,0.5,0.5S24.5,29,24.3,29z"/>
<g>
	<path class="st0" d="M27.7,34.2v-0.5l-1.5-1.5h-0.3c-0.3,0.5-0.7,0.8-1.3,0.8h-12c-0.6,0-1.1-0.3-1.3-0.8h-0.3l-1.5,1.5v0.5H27.7z"
		/>
	<path class="st0" d="M9.4,35c0.1,0.9,0.8,1.7,1.8,1.7h14.7c1,0,1.7-0.7,1.8-1.7H9.4z"/>
</g>
<path class="st3" d="M25.4,30.8h-0.3c-0.2,0.4-0.7,0.7-1.2,0.7H13.1c-0.5,0-1-0.3-1.2-0.7h-0.3l-1.3,1.3v1.1c0,0.9,0.7,1.6,1.6,1.6
	h13.3c0.9,0,1.6-0.7,1.6-1.6v-1.1L25.4,30.8z"/>
</svg>
