<?xml version="1.0" encoding="utf-8"?>
<!-- Generator: Adobe Illustrator 22.1.0, SVG Export Plug-In . SVG Version: 6.00 Build 0)  -->
<svg version="1.1" id="Layer_4_1_" xmlns="http://www.w3.org/2000/svg" xmlns:xlink="http://www.w3.org/1999/xlink" x="0px" y="0px"
	 viewBox="0 0 37 37" style="enable-background:new 0 0 37 37;" xml:space="preserve">
<style type="text/css">
	.st0{fill:#FFFFFF;stroke:#241C1C;stroke-width:0.25;stroke-miterlimit:10;}
	.st1{fill:#CE3535;}
</style>
<path class="st0" d="M30.5,23.7V13.3h4.3v-2.6c0-1.1-0.9-2.1-2.1-2.1h-0.5c-0.3,0-0.5,0.2-0.5,0.5v2h-1V8.5c0-0.6-0.5-1.1-1.1-1.1
	h-2.4c-0.6,0-1.1,0.5-1.1,1.1v2.6h-1V9.2c0-0.3-0.3-0.6-0.6-0.6H12.3c-0.3,0-0.6,0.3-0.6,0.6v1.9h-1V8.5c0-0.6-0.5-1.1-1.1-1.1H7.2
	C6.5,7.4,6,7.9,6,8.5v2.6H5v-2c0-0.3-0.2-0.5-0.5-0.5H4.2c-1.1,0-2.1,0.9-2.1,2.1v2.6h4.3v10.3H2.2v2.6c0,1.1,0.9,2.1,2.1,2.1h0.3
	c0.3,0,0.5-0.2,0.5-0.5V26h1v2.4c0,0.6,0.5,1.1,1.1,1.1h2.4c0.6,0,1.1-0.5,1.1-1.1V26h1v1.7c0,0.3,0.3,0.6,0.6,0.6h12.2
	c0.3,0,0.6-0.3,0.6-0.6V26h1v2.4c0,0.6,0.5,1.1,1.1,1.1h2.4c0.6,0,1.1-0.5,1.1-1.1V26h1v1.8c0,0.3,0.2,0.5,0.5,0.5h0.5
	c1.1,0,2.1-0.9,2.1-2.1v-2.6H30.5z"/>
<path class="st0" d="M36.3,14v1.3c0,0.1-0.1,0.3-0.3,0.3h-1.1c-0.3,0-0.5,0.2-0.5,0.5v4.8c0,0.3,0.2,0.5,0.5,0.5H36
	c0.1,0,0.3,0.1,0.3,0.3V23h-5.1v-9H36.3z"/>
<path class="st0" d="M0.7,14v1.3c0,0.1,0.1,0.3,0.3,0.3h1.1c0.3,0,0.5,0.2,0.5,0.5v4.8c0,0.3-0.2,0.5-0.5,0.5H0.9
	c-0.1,0-0.3,0.1-0.3,0.3V23h5.1v-9H0.7z"/>
<path class="st1" d="M18.5,12.7h-1.1c-0.2,0-0.3,0.2-0.3,0.3v4h-4c-0.2,0-0.3,0.2-0.3,0.3v1.1c0,3.2,2.6,5.8,5.8,5.8h1.1
	c0.2,0,0.3-0.2,0.3-0.3v-4h4c0.2,0,0.3-0.2,0.3-0.3v-1.1C24.3,15.3,21.7,12.7,18.5,12.7z M17.1,20.8v2.6c-1.7-0.5-3-1.8-3.5-3.5h2.5
	l3.8-3.8v-2.5c1.7,0.5,3,1.8,3.5,3.5h-2.6L17.1,20.8z"/>
</svg>
