<?xml version="1.0" encoding="utf-8"?>
<!-- Generator: Adobe Illustrator 22.1.0, SVG Export Plug-In . SVG Version: 6.00 Build 0)  -->
<svg version="1.1" id="Layer_4_1_" xmlns="http://www.w3.org/2000/svg" xmlns:xlink="http://www.w3.org/1999/xlink" x="0px" y="0px"
	 viewBox="0 0 37 37" style="enable-background:new 0 0 37 37;" xml:space="preserve">
<style type="text/css">
	.st0{opacity:0.25;fill:#241C1C;}
	.st1{opacity:0.5;fill:#241C1C;}
	.st2{fill:#241C1C;}
	.st3{fill:#E3A34D;}
	.st4{fill:#B68241;}
	.st5{fill:#CDC863;}
	.st6{fill:#483737;}
</style>
<rect x="19.7" y="3.9" class="st0" width="15.1" height="29"/>
<path class="st1" d="M31.1,29h-8.9c-0.4,0-0.8-0.3-0.8-0.8V8.7c0-0.4,0.3-0.8,0.8-0.8h8.9c0.4,0,0.8,0.3,0.8,0.8v19.5
	C31.9,28.7,31.5,29,31.1,29z"/>
<path class="st2" d="M3.2,4.4c0,0.6,0.5,1.1,1.1,1.1H8c0.6,0,1.1-0.5,1.1-1.1V4.3h0.6v0.1c0,0.6,0.5,1.1,1.1,1.1h1.6
	c0.6,0,1.1-0.5,1.1-1.1V4.3h0.4v0.3c0,0.5,0.4,0.9,0.9,0.9h2.3c0.5,0,0.9-0.4,0.9-0.9V4.3V3.8V2.4H4.3c-2.2,0-4,1.8-4,4v24.2
	c0,2.2,1.8,4,4,4H18V33v-0.3v-0.2c0-0.4-0.4-0.8-0.8-0.8h-2.3c-0.4,0-0.8,0.4-0.8,0.8v0.2h-0.8v-0.1c0-0.4-0.3-0.7-0.7-0.7h-3
	C9.3,32,9,32.3,9,32.6v0.1H8.6c-0.1-0.3-0.3-0.5-0.6-0.5H6.4c-0.3,0-0.5,0.2-0.6,0.5H5.3v-0.1c0-0.4-0.3-0.7-0.7-0.7H3.8
	c-0.4,0-0.7,0.3-0.7,0.7l-0.5,0.1v-1h0c0.5,0,1-0.4,1-1v-1c0-0.5-0.4-1-1-1h0V28c0.5-0.1,0.8-0.5,0.8-1v-0.4c0-0.5-0.4-0.9-0.8-1
	v-0.2c0.5-0.1,0.9-0.5,0.9-1v-3.8c0-0.5-0.4-0.9-0.9-1v-0.2C3,19.3,3.4,19,3.4,18.5v-2c0-0.5-0.4-0.9-0.9-0.9v-0.7
	c0.5-0.1,0.8-0.4,0.8-0.9v-2.4c0-0.5-0.4-0.9-0.8-0.9v-0.1c0.5-0.1,0.8-0.5,0.8-1V6.2c0-0.5-0.4-0.9-0.8-1V4.3L3.2,4.4z"/>
<path class="st2" d="M34.5,4.3v0.8c-0.5,0.1-0.9,0.6-0.9,1.1v2.6c0,0.6,0.4,1,0.9,1.1v0.4c-0.5,0-1,0.4-1,1v2.3c0,0.5,0.4,1,1,1v0.7
	c0,0,0,0,0,0c-0.5,0-0.9,0.4-0.9,0.9v1.8c0,0.5,0.4,0.9,0.9,0.9c0,0,0,0,0,0v0.4c-0.5,0.1-1,0.5-1,1.1v3.3c0,0.6,0.4,1,1,1.1v0.4
	h-0.1c-0.5,0-0.9,0.4-0.9,0.9v0.6c0,0.5,0.4,0.9,0.9,0.9h0.1v0.9c-0.5,0.1-0.9,0.5-0.9,1.1v0.8c0,0.5,0.4,1,0.9,1.1v1l-0.5-0.1
	c-0.1-0.3-0.2-0.4-0.5-0.4h-1.1c-0.3,0-0.5,0.2-0.6,0.5H31c-0.1-0.3-0.3-0.5-0.7-0.5h-1c-0.3,0-0.6,0.2-0.7,0.5h-1.2
	c-0.1-0.3-0.3-0.5-0.6-0.5H24c-0.3,0-0.5,0.2-0.6,0.5h-0.8v-0.1c0-0.4-0.3-0.7-0.7-0.7h-1.4c-0.4,0-0.7,0.3-0.7,0.7v0.1V33v1.5h12.9
	c2.2,0,4-1.8,4-4V6.4c0-2.2-1.8-4-4-4H19.7v1.5v0.4v0.3c0,0.5,0.4,0.9,0.9,0.9h1.8c0.5,0,0.9-0.4,0.9-0.9V4.3h0.5v0.2
	c0,0.6,0.5,1,1,1h1.5c0.6,0,1-0.5,1-1V4.3h0.4v0.3c0,0.5,0.4,0.8,0.8,0.8H33c0.5,0,0.8-0.4,0.8-0.8L34.5,4.3z"/>
<path class="st2" d="M18.1,28H5.2c-0.2,0-0.4-0.2-0.4-0.4v-1.6c0-0.2,0.2-0.4,0.4-0.4h12.9c0.2,0,0.4,0.2,0.4,0.4v1.6
	C18.5,27.9,18.3,28,18.1,28z"/>
<path class="st3" d="M17,23.3H9.5c-0.2,0-0.4-0.2-0.4-0.4v-5.7c0-0.2,0.2-0.4,0.4-0.4H17V23.3z"/>
<rect x="14.9" y="16.8" class="st4" width="0.7" height="6.5"/>
<rect x="12.7" y="16.8" class="st4" width="0.7" height="6.5"/>
<rect x="10.5" y="16.8" class="st4" width="0.7" height="6.5"/>
<path class="st2" d="M8.5,22.9v-5.7c0-0.6,0.5-1,1-1h8.6v-0.6H5.5v9.5h12.6v-1.2H9.5C8.9,23.9,8.5,23.4,8.5,22.9z"/>
<polygon class="st5" points="15.6,9 12.6,9 11.4,9 9.7,9 9.1,9 7.9,9 7.3,9 7.3,9.6 7.3,10.4 7.9,10.4 7.9,9.6 9.1,9.6 9.1,10.4 
	9.7,10.4 9.7,9.6 11.4,9.6 11.4,10.4 12.6,10.4 12.6,9.6 15.6,9.6 15.6,10.4 16.2,10.4 16.2,9.6 16.2,9 "/>
<path class="st0" d="M18,29.2H5.2c-0.9,0-1.6-0.7-1.6-1.6v-1.4c0-0.6,0.3-1.1,0.8-1.4v-8.6H3.7v-2.9c0-0.8,0.5-1.4,1.2-1.7v-0.7
	c0-0.8,0.5-1.4,1.2-1.6V7.9h11.3v1.4c0.3,0.1,0.5,0.2,0.7,0.4V3.9H1.9v29H18L18,29.2C18,29.2,18,29.2,18,29.2z"/>
<path class="st2" d="M18,12.6h-0.1h-0.4H6.1H5.5h0c-0.4,0-0.6,0.3-0.6,0.6V15h13.7v-1.7C18.6,12.9,18.3,12.6,18,12.6z"/>
<path class="st6" d="M17.4,10.8c0-0.3-0.2-0.5-0.5-0.5H6.5c-0.3,0-0.5,0.2-0.5,0.5v1.8h11.4V10.8z"/>
</svg>
